<?xml version="1.0" encoding="iso-8859-1"?>
<svg version="1.1" xmlns="http://www.w3.org/2000/svg" xmlns:xlink="http://www.w3.org/1999/xlink"
	viewBox="0 0 512 512" xml:space="preserve">
	<g style="fill: white;">
		<path d="M504.485,496.956H385.252c-4.151,0-7.515,3.364-7.515,7.515s3.364,7.515,7.515,7.515h119.233
			c4.151,0,7.515-3.364,7.515-7.515S508.636,496.956,504.485,496.956z"/>
		<path d="M424.329,416.799H154.611l74.711-49.096h130.882c4.151,0,7.515-3.364,7.515-7.515s-3.364-7.515-7.515-7.515H252.193
			l38.117-25.049h29.815c4.151,0,7.515-3.364,7.515-7.515c0-4.151-3.364-7.515-7.515-7.515h-24.548V191.86
			c0-2.53-1.273-4.891-3.388-6.28L11.642,1.22C6.732-2.009,0,1.645,0,7.5v496.971c0,4.082,3.431,7.515,7.515,7.515h341.166
			c4.151,0,7.515-3.364,7.515-7.515s-3.364-7.515-7.515-7.515H32.634l99.107-65.127h292.588c4.151,0,7.515-3.364,7.515-7.515
			S428.48,416.799,424.329,416.799z M231.452,163.651l49.096,32.263v17.202l-49.096-18.236V163.651z M231.452,210.912l49.096,18.236
			v19.323h-49.096V210.912z M231.452,263.501h49.096v19.323l-49.096,18.236V263.501z M231.452,317.091l49.096-18.236v17.202
			l-49.096,32.263V317.091z M120.235,421.405L15.029,490.54v-93.064L120.235,358.4V421.405z M120.235,342.368L15.029,381.444V263.5
			h105.206V342.368z M120.235,248.471H15.029V130.526l105.206,39.076V248.471z M120.235,153.571L15.029,114.495V21.431
			l105.206,69.135V153.571z M135.264,100.441l81.159,53.333v35.523l-81.159-30.145V100.441z M135.264,175.184l81.159,30.145v43.141
			h-81.159V175.184z M135.264,263.499h81.159v43.142l-81.159,30.144V263.499z M135.264,352.817l81.159-30.145v35.523l-81.159,53.333
			V352.817z"/>
	</g>
</svg>