<svg height="512" viewBox="0 0 511.999 511.999" width="512" xmlns="http://www.w3.org/2000/svg"><g fill="white"><path d="m427.058 168.986c-2.583-2.718-6.076-4.425-9.777-4.827-2.886-34.803-25.918-63.96-57.369-75.78-8.109-50.044-51.614-88.379-103.912-88.379-21.11 0-41.346 6.202-58.789 17.987-9.337 6.308-17.652 14.111-24.544 23.026-6.947 8.986-12.433 19.09-16.159 29.82-1.979 5.699-3.439 11.568-4.403 17.519-31.475 11.812-54.521 40.994-57.405 75.811-3.694.406-7.18 2.111-9.759 4.824-2.974 3.13-4.553 7.398-4.333 11.71 1.937 37.764 15.671 73.168 39.719 102.386 23.731 28.833 55.268 49.031 91.201 58.409 11.03 2.879 18.734 12.961 18.734 24.518v50.077c0 5.391-.73 10.748-2.17 15.92-1.11 3.989 1.224 8.122 5.212 9.232 3.993 1.109 8.121-1.225 9.232-5.212 1.804-6.482 2.719-13.19 2.719-19.94v-50.077c0-18.376-12.312-34.424-29.941-39.025-32.857-8.575-61.699-27.051-83.41-53.43-21.991-26.719-34.551-59.095-36.322-93.625-.012-.236.064-.444.228-.616.162-.171.363-.257.596-.257h319.187c.233 0 .434.086.596.257.164.172.24.38.228.615-1.771 34.532-14.331 66.907-36.322 93.627-21.711 26.379-50.553 44.854-83.41 53.43-17.629 4.601-29.941 20.648-29.941 39.025v50.077c0 34.64 24.286 64.962 57.749 72.098 7.119 1.514 14.246 3.339 19.483 8.822h-175.953c5.318-5.572 12.299-7.29 19.485-8.822 13.412-2.861 25.702-9.471 35.541-19.116 2.957-2.898 3.004-7.645.105-10.601s-7.645-3.003-10.6-.105c-8.404 8.238-18.997 13.438-30.5 15.63-2.816.448-28.295 5.149-33.569 28.885-.493 2.22.048 4.543 1.47 6.317 1.423 1.773 3.573 2.806 5.848 2.806h200.394c2.273 0 4.425-1.032 5.848-2.806 1.422-1.774 1.963-4.097 1.47-6.317-3.02-13.597-13.902-22.931-26.736-27.158-6.757-2.225-13.678-2.127-20.261-5.22-7.937-3.729-15.155-9.548-20.799-16.237-8.958-10.615-13.981-24.282-13.981-38.175 0-.096 0-50.077 0-50.077 0-11.557 7.704-21.639 18.734-24.518 35.933-9.378 67.47-29.575 91.201-58.409 24.048-29.218 37.782-64.622 39.719-102.388.219-4.313-1.36-8.581-4.334-11.711zm-207.614-146.253c4.301 6.075 9.644 11.707 15.722 16.509 3.249 2.568 7.964 2.014 10.529-1.235 2.567-3.248 2.014-7.963-1.235-10.529-3.75-2.963-7.149-6.294-10.085-9.861.313-.077.625-.156.939-.23 6.722-1.581 13.737-2.395 20.686-2.395 42.459 0 78.162 29.462 87.749 69.016-4.873-.832-9.872-1.289-14.979-1.289-4.972 0-9.847.419-14.599 1.209-6.146-24.06-22.716-33.45-40.712-41.433-3.781-1.679-8.212.027-9.892 3.812-1.679 3.785.028 8.213 3.813 9.892 18.259 8.101 28.327 15.302 32.329 31.41-17.811 6.187-33.065 17.891-43.705 33.059-16.081-22.928-42.705-37.948-72.776-37.948-5.095 0-10.09.437-14.953 1.265 6.657-27.424 25.853-49.997 51.169-61.252zm-109.685 141.331c3.769-37.213 35.28-66.352 73.469-66.352 38.19 0 69.702 29.139 73.471 66.352zm161.991 0c-.849-10.11-3.396-19.743-7.358-28.613 12.666-22.501 36.769-37.739 64.378-37.739 37.442 0 68.446 28.014 73.198 64.179l.242 2.172h-130.46z"/></g></svg>