<?xml version="1.0" ?>
<svg version="1.1" xmlns="http://www.w3.org/2000/svg" xmlns:xlink="http://www.w3.org/1999/xlink"
	viewBox="0 0 512 512">
	<g style="fill: white;">
		<path d="M510.171,106.057c-2.3-3.805-6.327-6.077-10.772-6.077H240.931h-17.412h-95.023c-4.171,0-7.552,3.381-7.552,7.552
			s3.381,7.552,7.552,7.552h82.422L15.104,481.418V115.084H73.87c4.171,0,7.552-3.381,7.552-7.552c0-4.171-3.381-7.552-7.552-7.552
			H12.587C5.646,99.98,0,105.626,0,112.567V487.42c0,6.941,5.646,12.587,12.587,12.587h5.181h220.323h64.447
			c4.691,0,8.961-2.58,11.144-6.735l131.115-249.666c1.939-3.693,0.518-8.258-3.175-10.198c-3.695-1.94-8.258-0.518-10.198,3.175
			L301.017,484.903h-62.272H30.369l197.677-369.818h16.773h250.413l-39.425,75.071c-1.939,3.693-0.518,8.258,3.175,10.198
			c3.693,1.939,8.258,0.517,10.198-3.175l41.362-78.76C512.609,114.484,512.471,109.862,510.171,106.057z"/>
		<path d="M353.407,43.001L319.171,13.8c-3.173-2.708-7.941-2.328-10.647,0.844c-2.707,3.173-2.329,7.94,0.844,10.647l18.645,15.904
			H166.775c-4.171,0-7.552,3.381-7.552,7.552c0,4.171,3.381,7.552,7.552,7.552h162.877L309.057,75.95
			c-3.018,2.879-3.13,7.66-0.251,10.677c1.484,1.556,3.472,2.339,5.465,2.339c1.874,0,3.75-0.693,5.212-2.088l34.237-32.667
			c1.547-1.476,2.396-3.537,2.336-5.674C355.997,46.4,355.034,44.389,353.407,43.001z"/>
	</g>
</svg>
